<svg xmlns="http://www.w3.org/2000/svg" xmlns:xlink="http://www.w3.org/1999/xlink" width="160" height="28.235" viewBox="0 0 160 28.235"><defs><style>.a{fill:url(#a);}</style><linearGradient id="a" x1="0.5" x2="0.5" y2="1" gradientUnits="objectBoundingBox"><stop offset="0" stop-color="#45c8fa"/><stop offset="1" stop-color="#2197f3"/></linearGradient></defs><path class="a" d="M14.112,6.966v0H5.693l.62-2.312A6.521,6.521,0,0,1,12.21,0H40.784l-.6,2.259a6.6,6.6,0,0,1-5.964,4.71c-6.778,0-13.007,0-20.1,0Zm-1.068,3.989H31.805l-.346,1.292a6.6,6.6,0,0,1-5.966,4.71H11.437L8.417,28.235H0L3.368,15.657a6.584,6.584,0,0,1,5.955-4.7h3.72Z"/><path class="a" d="M45.067,0h8.266l-7.42,28.235H37.647Z"/><path class="a" d="M54.974,4.709l-.6,2.258H66.573q-2.8,10.635-5.6,21.267h8.285q2.8-10.635,5.6-21.267h7.564a6.513,6.513,0,0,0,5.871-4.709L88.889,0H60.843A6.518,6.518,0,0,0,54.974,4.709Z"/><path class="a" d="M89.484,4.709l-.6,2.258h12.194q-2.8,10.635-5.6,21.267h8.285q2.8-10.635,5.6-21.267h7.564A6.513,6.513,0,0,0,122.8,2.258L123.4,0H95.353A6.514,6.514,0,0,0,89.484,4.709Z"/><path class="a" d="M144.658,28.233h8.871l-3-11.327,1.6,0a6.2,6.2,0,0,0,5.594-4.459q1.059-3.991,2.12-7.984C160.5,2,159.045,0,156.609,0H131.381a6.555,6.555,0,0,0-5.916,4.707l-.6,2.261h25.5l-1.039,3.907c-7.046,0-14.079.075-21.125.1a6.209,6.209,0,0,0-5.587,4.461q-1.7,6.4-3.4,12.8h8.814q1.5-5.633,2.991-11.262,5.288,0,10.558-.028Z"/></svg>